<?xml version="1.0" encoding="iso-8859-1"?>
<!-- Generator: Adobe Illustrator 19.0.0, SVG Export Plug-In . SVG Version: 6.00 Build 0)  -->
<svg version="1.1" id="Capa_1" xmlns="http://www.w3.org/2000/svg" xmlns:xlink="http://www.w3.org/1999/xlink" x="0px" y="0px"
	 viewBox="0 0 508 508" style="enable-background:new 0 0 508 508;" xml:space="preserve">
<g>
	<g>
		<g>
			<rect x="180.2" y="180.35" width="16.4" height="16.4"/>
			<rect x="213" y="180.35" width="16.4" height="16.4"/>
			<rect x="245.8" y="180.35" width="16.4" height="16.4"/>
			<rect x="303.1" y="180.35" width="16.4" height="16.4"/>
			<rect x="335.9" y="180.35" width="16.4" height="16.4"/>
			<rect x="368.7" y="180.35" width="16.4" height="16.4"/>
			<rect x="401.5" y="180.35" width="16.4" height="16.4"/>
			<path d="M393.3,327.85h-81.9c-13.6,0-24.6,11-24.6,24.6c0,13.6,11,24.6,24.6,24.6h81.9c13.6,0,24.6-11,24.6-24.6
				C417.9,338.85,406.8,327.85,393.3,327.85z M393.3,360.55h-81.9c-4.5,0-8.2-3.7-8.2-8.2s3.7-8.2,8.2-8.2h81.9
				c4.5,0,8.2,3.7,8.2,8.2C401.5,356.95,397.8,360.55,393.3,360.55z"/>
			<path d="M49.1,81.95v49.1H0v154.6v65v75.4h90.1h15.2h3.7h55.7h294.2v-49.1H508v-295H49.1z M16.4,295.75c5-2.3,10.3-4.1,15.6-5.5
				l18.2,18.2c-11.5,6.6-22.7,15-33.2,24.8l-0.6-0.6V295.75z M97.9,333.05l-19.8-19.8c16.8-6.2,31.6-6.9,41.8-2.2L97.9,333.05z
				 M131.5,322.65c4.8,10.2,4,25-2.2,41.8l-19.8-19.8L131.5,322.65z M65.6,300.75L52,287.15c13.3-0.8,26.5,1.2,38.8,5.7
				C82.8,294.25,74.3,296.85,65.6,300.75z M62.3,320.55l24,24l-29,29l-28.7-28.7C39.3,335.05,50.7,326.75,62.3,320.55z M16.4,409.75
				v-52.9c0.2-0.2,0.3-0.4,0.5-0.5l28.8,28.8l-24.6,24.6H16.4z M44.3,409.75l13-13l13,13H44.3z M101.6,409.65h-8.1v0.1l-24.6-24.6
				l29-29l24.1,24.1C116.6,390.25,109.7,400.25,101.6,409.65z M122.5,409.75c4.3-5.7,8.2-11.5,11.6-17.3l17.3,17.3H122.5z
				 M155.4,390.45l-13.5-13.6c3.8-8.8,6.4-17.2,7.9-25.2C154.1,364.05,156.1,377.15,155.4,390.45z M442.6,155.75v65.6v188.4H169.4
				c8.5-38.3-3.1-77.8-30.9-105.7c-27.8-27.8-67.4-39.4-105.7-30.9c-5.6,1.2-11,2.8-16.3,4.9v-130.5h426.1V155.75z M458.8,155.75
				v-24.6H65.5v-32.8h426.1v57.4H458.8z M491.6,172.15v32.8h-32.7v-32.8H491.6z M491.7,360.55h-32.8v-139.3h32.8V360.55z"/>
			<rect x="262.2" y="229.45" width="155.7" height="16.4"/>
			<rect x="262.2" y="278.65" width="155.7" height="16.4"/>
		</g>
	</g>
</g>
<g>
</g>
<g>
</g>
<g>
</g>
<g>
</g>
<g>
</g>
<g>
</g>
<g>
</g>
<g>
</g>
<g>
</g>
<g>
</g>
<g>
</g>
<g>
</g>
<g>
</g>
<g>
</g>
<g>
</g>
</svg>
