<svg height="512" viewBox="0 0 512 512" width="512" xmlns="http://www.w3.org/2000/svg"><g id="Outline"><path d="m488 384h-8v-216a40.047 40.047 0 0 0 -40-40v-24a40.047 40.047 0 0 0 -40-40h-288a40.047 40.047 0 0 0 -40 40v24a40.047 40.047 0 0 0 -40 40v216h-8a8 8 0 0 0 -8 8v24a32.032 32.032 0 0 0 32 32h416a32.032 32.032 0 0 0 32-32v-24a8 8 0 0 0 -8-8zm-440-216a24.027 24.027 0 0 1 24-24v224h16v-264a24.027 24.027 0 0 1 24-24h288a24.027 24.027 0 0 1 24 24v264h16v-224a24.027 24.027 0 0 1 24 24v216h-140.688a35.079 35.079 0 0 0 -24.968 10.344 19.191 19.191 0 0 1 -13.656 5.656h-57.376a19.191 19.191 0 0 1 -13.656-5.656 35.079 35.079 0 0 0 -24.968-10.344h-140.688zm432 248a16.021 16.021 0 0 1 -16 16h-416a16.021 16.021 0 0 1 -16-16v-16h156.688a19.191 19.191 0 0 1 13.656 5.656 35.073 35.073 0 0 0 24.937 10.344h57.438a35.073 35.073 0 0 0 24.937-10.341 19.191 19.191 0 0 1 13.656-5.659h156.688z"/><path d="m111.992 96h16v16h-16z"/><path d="m143.992 96h16v16h-16z"/><path d="m175.992 96h16v16h-16z"/><path d="m112 144h232 56v-16h-56-232z"/><path d="m112 344h288v16h-288z"/><path d="m141.82 270.664 199.086 56.274a27.943 27.943 0 0 0 7.633 1.07 27.47 27.47 0 0 0 16.617-5.617 27.247 27.247 0 0 0 -8.015-47.68l-55.782-18.4-54.468-92.374a8.008 8.008 0 0 0 -6.891-3.937h-24a8 8 0 0 0 -7.656 10.32l19.914 65.68-46.11-11.406-6.578-19.188a7.985 7.985 0 0 0 -5.039-4.992l-24-8a7.992 7.992 0 0 0 -10.531 7.586v62.969a7.99 7.99 0 0 0 5.82 7.695zm10.18-59.564 9.719 3.234 6.711 19.57a8 8 0 0 0 5.648 5.172l64 15.828a8 8 0 0 0 9.578-10.086l-20.867-68.818h8.641l53.679 91.031a7.976 7.976 0 0 0 4.383 3.531l58.633 19.338a11.352 11.352 0 0 1 7.875 10.748 11.2 11.2 0 0 1 -4.5 8.985 11.646 11.646 0 0 1 -10.234 1.914l-193.266-54.633z"/><path d="m112 160h32v16h-32z"/><path d="m160 160h32v16h-32z"/><path d="m272 160h32v16h-32z"/><path d="m320 160h32v16h-32z"/><path d="m368 160h32v16h-32z"/></g></svg>