<svg width="1124" height="613" viewBox="0 0 1124 613" fill="none" xmlns="http://www.w3.org/2000/svg">
<g opacity="0.1" class="translate-top">
<g clip-path="url(#clip0)">
<path d="M1057.9 229.716L991.899 268V191.431L1057.9 153.147V229.716Z" fill="#1871B7"/>
<path d="M992.003 191.569L926 153.284L991.997 115L1058 153.284L992.003 191.569Z" fill="#225CB1"/>
<path d="M992.102 268L926.105 229.716V153.147L992.102 191.431V268Z" fill="#154469"/>
</g>
</g>
<g opacity="0.1">
<path d="M991.896 344.716L925.899 383V306.431L991.896 268.147V344.716Z" fill="#1871B7"/>
<path d="M926.003 306.569L860 268.284L925.997 230L992 268.284L926.003 306.569Z" fill="#225CB1"/>
<path d="M926.101 383L860.104 344.716V268.147L926.101 306.431V383Z" fill="#154469"/>
</g>
<g opacity="0.1" class="translate-top">
<path d="M1123.9 344.716L1057.9 383V306.431L1123.9 268.147V344.716Z" fill="#1871B7"/>
<path d="M1058 306.569L992 268.284L1058 230L1124 268.284L1058 306.569Z" fill="#225CB1"/>
<path d="M1058.1 383L992.105 344.716V268.147L1058.1 306.431V383Z" fill="#154469"/>
</g>
<g opacity="0.1">
<path d="M859.896 344.716L793.899 383V306.431L859.896 268.147V344.716Z" fill="#1871B7"/>
<path d="M794.003 306.569L728 268.284L793.997 230L860 268.284L794.003 306.569Z" fill="#225CB1"/>
<path d="M794.101 383L728.104 344.716V268.147L794.101 306.431V383Z" fill="#154469"/>
</g>
<g opacity="0.1" class="translate-top">
<g clip-path="url(#clip1)">
<path d="M925.896 459.716L859.899 498V421.431L925.896 383.147V459.716Z" fill="#1871B7"/>
<path d="M860.003 421.569L794 383.284L859.997 345L926 383.284L860.003 421.569Z" fill="#225CB1"/>
<path d="M860.101 498L794.104 459.716V383.147L860.101 421.431V498Z" fill="#154469"/>
</g>
</g>
<g opacity="0.1">
<g clip-path="url(#clip2)">
<path d="M529.896 459.716L463.899 498V421.431L529.896 383.147V459.716Z" fill="#1871B7"/>
<path d="M464.003 421.569L398 383.284L463.997 345L530 383.284L464.003 421.569Z" fill="#225CB1"/>
<path d="M464.101 498L398.104 459.716V383.147L464.101 421.431V498Z" fill="#154469"/>
</g>
</g>
<g opacity="0.1" class="translate-top">
<path d="M397.896 459.716L331.899 498V421.431L397.896 383.147V459.716Z" fill="#1871B7"/>
<path d="M332.003 421.569L266 383.284L331.997 345L398 383.284L332.003 421.569Z" fill="#225CB1"/>
<path d="M332.101 498L266.104 459.716V383.147L332.101 421.431V498Z" fill="#154469"/>
</g>
<g opacity="0.1">
<g clip-path="url(#clip3)">
<path d="M463.896 574.716L397.899 613V536.431L463.896 498.147V574.716Z" fill="#1871B7"/>
<path d="M398.003 536.569L332 498.284L397.997 460L464 498.284L398.003 536.569Z" fill="#225CB1"/>
<path d="M398.101 613L332.104 574.716V498.147L398.101 536.431V613Z" fill="#154469"/>
</g>
</g>
<g opacity="0.1" class="translate-top">
<g clip-path="url(#clip4)">
<path d="M131.896 459.716L65.8986 498V421.431L131.896 383.147V459.716Z" fill="#1871B7"/>
<path d="M66.0027 421.569L0 383.284L65.9973 345L132 383.284L66.0027 421.569Z" fill="#225CB1"/>
<path d="M66.1015 498L0.104248 459.716V383.147L66.1015 421.431V498Z" fill="#154469"/>
</g>
</g>
<g opacity="0.1">
<g clip-path="url(#clip5)">
<path d="M264.896 459.716L198.899 498V421.431L264.896 383.147V459.716Z" fill="#1871B7"/>
<path d="M199.003 421.569L133 383.284L198.997 345L265 383.284L199.003 421.569Z" fill="#225CB1"/>
<path d="M199.101 498L133.104 459.716V383.147L199.101 421.431V498Z" fill="#154469"/>
</g>
</g>
<g opacity="0.1" class="translate-top">
<path d="M860.896 114.716L794.899 153V76.4312L860.896 38.1467V114.716Z" fill="#1871B7"/>
<path d="M795.003 76.5688L729 38.2844L794.997 0L861 38.2844L795.003 76.5688Z" fill="#225CB1"/>
<path d="M795.101 153L729.104 114.716V38.1467L795.101 76.4312V153Z" fill="#154469"/>
</g>
<g opacity="0.1">
<g clip-path="url(#clip6)">
<path d="M793.896 229.716L727.899 268V191.431L793.896 153.147V229.716Z" fill="#1871B7"/>
<path d="M728.003 191.569L662 153.284L727.997 115L794 153.284L728.003 191.569Z" fill="#225CB1"/>
<path d="M728.101 268L662.104 229.716V153.147L728.101 191.431V268Z" fill="#154469"/>
</g>
</g>
<g opacity="0.1" class="translate-top">
<path d="M661.896 229.716L595.899 268V191.431L661.896 153.147V229.716Z" fill="#1871B7"/>
<path d="M596.003 191.569L530 153.284L595.997 115L662 153.284L596.003 191.569Z" fill="#225CB1"/>
<path d="M596.101 268L530.104 229.716V153.147L596.101 191.431V268Z" fill="#154469"/>
</g>
<g opacity="0.1">
<path d="M529.896 229.716L463.899 268V191.431L529.896 153.147V229.716Z" fill="#1871B7"/>
<path d="M464.003 191.569L398 153.284L463.997 115L530 153.284L464.003 191.569Z" fill="#225CB1"/>
<path d="M464.101 268L398.104 229.716V153.147L464.101 191.431V268Z" fill="#154469"/>
</g>
<g opacity="0.1" class="translate-top">
<g clip-path="url(#clip7)">
<path d="M595.896 344.716L529.899 383V306.431L595.896 268.147V344.716Z" fill="#1871B7"/>
<path d="M530.003 306.569L464 268.284L529.997 230L596 268.284L530.003 306.569Z" fill="#225CB1"/>
<path d="M530.101 383L464.104 344.716V268.147L530.101 306.431V383Z" fill="#154469"/>
</g>
</g>
<defs>
<clipPath id="clip0">
<rect x="926" y="115" width="132" height="153" fill="white"/>
</clipPath>
<clipPath id="clip1">
<rect x="794" y="345" width="132" height="153" fill="white"/>
</clipPath>
<clipPath id="clip2">
<rect x="398" y="345" width="132" height="153" fill="white"/>
</clipPath>
<clipPath id="clip3">
<rect x="332" y="460" width="132" height="153" fill="white"/>
</clipPath>
<clipPath id="clip4">
<rect y="345" width="132" height="153" fill="white"/>
</clipPath>
<clipPath id="clip5">
<rect x="133" y="345" width="132" height="153" fill="white"/>
</clipPath>
<clipPath id="clip6">
<rect x="662" y="115" width="132" height="153" fill="white"/>
</clipPath>
<clipPath id="clip7">
<rect x="464" y="230" width="132" height="153" fill="white"/>
</clipPath>
</defs>
</svg>
