<?xml version="1.0" encoding="utf-8"?><svg xmlns="http://www.w3.org/2000/svg" xmlns:xlink="http://www.w3.org/1999/xlink"><symbol viewBox="0 0 512 512" id="analisys" xmlns="http://www.w3.org/2000/svg"><path d="M326.623 133.062c13.785 0 25-11.215 25-25s-11.215-25.001-25-25.001-25 11.216-25 25.001c0 5.63 1.872 10.83 5.025 15.014l-41.076 57.401a24.9 24.9 0 00-7.784-1.247c-6.569 0-12.551 2.551-17.017 6.709l-27.379-15.536a24.96 24.96 0 00.561-5.257c0-13.785-11.215-25-25-25s-25 11.215-25 25c0 1.803.196 3.561.561 5.257l-27.379 15.536c-4.466-4.158-10.448-6.708-17.017-6.708-13.785 0-25 11.216-25 25.001s11.215 25.001 25 25.001 25-11.216 25-25.001a24.96 24.96 0 00-.561-5.257l27.379-15.536c4.466 4.158 10.448 6.709 17.017 6.709 6.569 0 12.55-2.551 17.017-6.708l27.379 15.536a24.96 24.96 0 00-.561 5.257c0 13.785 11.215 25.001 25 25.001 13.786 0 25.001-11.216 25.001-25.001a24.871 24.871 0 00-5.026-15.016l41.076-57.401a24.923 24.923 0 007.784 1.246zm0-35.001c5.514 0 10 4.486 10 10.001 0 5.514-4.486 10-10 10s-10-4.486-10-10c-.001-5.515 4.485-10.001 10-10.001zm-206.508 116.17c-5.514 0-10-4.486-10-10.001s4.486-10.001 10-10.001 10 4.486 10 10.001-4.486 10.001-10 10.001zm68.836-39.085c-5.514 0-10-4.486-10-10.001 0-5.514 4.486-10 10-10s10 4.486 10 10c.001 5.515-4.486 10.001-10 10.001zm68.836 39.085c-5.514 0-10-4.486-10-10.001s4.486-10.001 10-10.001c5.515 0 10.001 4.486 10.001 10.001s-4.487 10.001-10.001 10.001z"/><path d="M418.796 376.965H21.215A6.222 6.222 0 0115 370.75V61.331a6.222 6.222 0 016.215-6.215h35.356c4.142 0 7.5-3.357 7.5-7.5s-3.358-7.5-7.5-7.5H21.215C9.517 40.116 0 49.633 0 61.331V370.75c0 11.698 9.517 21.215 21.215 21.215h51.713v16.506c0 9.403 7.65 17.053 17.053 17.053h75.074l-35.34 68.998a7.5 7.5 0 0013.35 6.838l38.843-75.836h82.922l38.843 75.836a7.498 7.498 0 0010.094 3.257 7.5 7.5 0 003.256-10.095l-35.34-68.998h75.074c9.403 0 17.053-7.649 17.053-17.053v-16.506h44.986c4.142 0 7.5-3.357 7.5-7.5s-3.358-7.5-7.5-7.5zm-59.986 31.506a2.055 2.055 0 01-2.053 2.053H89.981a2.055 2.055 0 01-2.053-2.053v-16.506H358.81v16.506zM86.571 55.116h338.951a6.222 6.222 0 016.215 6.215v71.311c0 4.143 3.358 7.5 7.5 7.5s7.5-3.357 7.5-7.5V61.331c0-11.698-9.517-21.215-21.215-21.215H264.995V25.374c0-10.375-8.441-18.816-18.817-18.816H200.56c-10.375 0-18.817 8.441-18.817 18.816v14.742H86.571c-4.142 0-7.5 3.357-7.5 7.5s3.358 7.5 7.5 7.5zm110.172-29.742a3.82 3.82 0 013.817-3.816h45.618a3.821 3.821 0 013.817 3.816v14.742h-53.251V25.374z"/><path d="M104.902 267.576a7.5 7.5 0 00-7.5 7.5v66.272a7.5 7.5 0 007.5 7.5h30.427a7.5 7.5 0 007.5-7.5v-66.272a7.5 7.5 0 00-7.5-7.5h-30.427zm22.927 66.273h-15.427v-51.272h15.427v51.272zm45.908-104.601a7.5 7.5 0 00-7.5 7.5v104.601a7.5 7.5 0 007.5 7.5h30.427a7.5 7.5 0 007.5-7.5V236.748a7.5 7.5 0 00-7.5-7.5h-30.427zm22.928 104.601h-15.427v-89.601h15.427v89.601zm45.908-66.273a7.5 7.5 0 00-7.5 7.5v66.272a7.5 7.5 0 007.5 7.5H273a7.5 7.5 0 007.5-7.5v-66.272a7.5 7.5 0 00-7.5-7.5h-30.427zm22.927 66.273h-15.427v-51.272H265.5v51.272zm45.909-22.017a7.5 7.5 0 00-7.5 7.5v22.017a7.5 7.5 0 007.5 7.5h30.427c4.142 0 7.5-3.357 7.5-7.5s-3.358-7.5-7.5-7.5h-22.927v-14.517a7.5 7.5 0 00-7.5-7.5zm196.766 72.187l-43.027-74.526c10.901-11.619 18.839-25.816 23.079-41.64 6.777-25.291 3.299-51.708-9.793-74.384-27.026-46.813-87.097-62.906-133.907-35.881-46.811 27.025-62.906 87.096-35.88 133.907 13.092 22.676 34.231 38.896 59.522 45.674a98.565 98.565 0 0025.53 3.382c7.442 0 14.841-.856 22.077-2.55l43.018 74.528c5.273 9.137 14.875 14.25 24.737 14.249 4.833 0 9.729-1.229 14.208-3.813 8.796-5.077 14.261-14.544 14.261-24.706 0-4.979-1.322-9.902-3.825-14.24zM372.051 322.68c-21.421-5.74-39.326-19.479-50.415-38.685-22.89-39.648-9.257-90.526 30.39-113.417 13.043-7.53 27.296-11.106 41.374-11.106 28.715 0 56.683 14.893 72.043 41.497 11.088 19.206 14.034 41.58 8.294 63.002-5.74 21.422-19.479 39.325-38.685 50.414-19.205 11.089-41.579 14.033-63.001 8.295zm118.191 87.293c-6.453 3.726-14.733 1.508-18.456-4.942l-41.388-71.704a99.523 99.523 0 0012.156-5.951 99.317 99.317 0 0011.23-7.566l41.4 71.707A13.528 13.528 0 01497 398.26a13.56 13.56 0 01-6.758 11.713z"/><path d="M461.542 263.611c5.295-17.056 4.034-35.316-3.551-51.416a7.5 7.5 0 10-13.569 6.392c5.983 12.7 6.976 27.109 2.795 40.575-4.204 13.54-13.286 24.903-25.573 31.997-13.002 7.508-28.151 9.5-42.652 5.615-14.502-3.886-26.624-13.187-34.13-26.189-15.497-26.841-6.267-61.285 20.574-76.782a56.131 56.131 0 0162.051 3.857 7.498 7.498 0 0010.506-1.455 7.5 7.5 0 00-1.456-10.506 71.1 71.1 0 00-78.602-4.887c-16.472 9.51-28.255 24.866-33.178 43.238s-2.396 37.562 7.114 54.034c9.51 16.473 24.866 28.255 43.238 33.179a71.6 71.6 0 0018.546 2.457c12.338 0 24.517-3.236 35.488-9.571 15.567-8.986 27.073-23.382 32.399-40.538z"/></symbol><symbol viewBox="0 0 508 508" id="business-card" xmlns="http://www.w3.org/2000/svg"><path d="M180.2 180.35h16.4v16.4h-16.4zm32.8 0h16.4v16.4H213zm32.8 0h16.4v16.4h-16.4zm57.3 0h16.4v16.4h-16.4zm32.8 0h16.4v16.4h-16.4zm32.8 0h16.4v16.4h-16.4zm32.8 0h16.4v16.4h-16.4zm-8.2 147.5h-81.9c-13.6 0-24.6 11-24.6 24.6 0 13.6 11 24.6 24.6 24.6h81.9c13.6 0 24.6-11 24.6-24.6 0-13.6-11.1-24.6-24.6-24.6zm0 32.7h-81.9c-4.5 0-8.2-3.7-8.2-8.2s3.7-8.2 8.2-8.2h81.9c4.5 0 8.2 3.7 8.2 8.2 0 4.6-3.7 8.2-8.2 8.2z"/><path d="M49.1 81.95v49.1H0v295h458.9v-49.1H508v-295H49.1zm-32.7 213.8c5-2.3 10.3-4.1 15.6-5.5l18.2 18.2c-11.5 6.6-22.7 15-33.2 24.8l-.6-.6v-36.9zm81.5 37.3l-19.8-19.8c16.8-6.2 31.6-6.9 41.8-2.2l-22 22zm33.6-10.4c4.8 10.2 4 25-2.2 41.8l-19.8-19.8 22-22zm-65.9-21.9L52 287.15c13.3-.8 26.5 1.2 38.8 5.7-8 1.4-16.5 4-25.2 7.9zm-3.3 19.8l24 24-29 29-28.7-28.7c10.7-9.8 22.1-18.1 33.7-24.3zm-45.9 89.2v-52.9c.2-.2.3-.4.5-.5l28.8 28.8-24.6 24.6h-4.7zm27.9 0l13-13 13 13h-26zm57.3-.1h-8.1v.1l-24.6-24.6 29-29 24.1 24.1c-5.4 10-12.3 20-20.4 29.4zm20.9.1c4.3-5.7 8.2-11.5 11.6-17.3l17.3 17.3h-28.9zm32.9-19.3l-13.5-13.6c3.8-8.8 6.4-17.2 7.9-25.2 4.3 12.4 6.3 25.5 5.6 38.8zm287.2-234.7v254H169.4c8.5-38.3-3.1-77.8-30.9-105.7-27.8-27.8-67.4-39.4-105.7-30.9-5.6 1.2-11 2.8-16.3 4.9v-130.5h426.1v8.2zm16.2 0v-24.6H65.5v-32.8h426.1v57.4h-32.8zm32.8 16.4v32.8h-32.7v-32.8h32.7zm.1 188.4h-32.8v-139.3h32.8v139.3z"/><path d="M262.2 229.45h155.7v16.4H262.2zm0 49.2h155.7v16.4H262.2z"/></symbol><symbol viewBox="0 0 512 512" id="cms" xmlns="http://www.w3.org/2000/svg"><path d="M240.93 364.99c-2.63 0-5.21 1.069-7.07 2.93a10.062 10.062 0 00-2.93 7.07c0 2.63 1.07 5.21 2.93 7.069 1.86 1.86 4.44 2.931 7.07 2.931s5.21-1.07 7.07-2.931a10.095 10.095 0 002.93-7.069c0-2.641-1.07-5.21-2.93-7.07a10.076 10.076 0 00-7.07-2.93zm190.84-29.87c-2.64 0-5.22 1.069-7.08 2.93a10.053 10.053 0 00-2.92 7.07c0 2.63 1.061 5.21 2.92 7.069a10.082 10.082 0 007.08 2.931c2.63 0 5.2-1.07 7.07-2.931 1.86-1.87 2.93-4.439 2.93-7.069s-1.069-5.21-2.93-7.07a10.09 10.09 0 00-7.07-2.93zM135.939 287c-2.63 0-5.21 1.069-7.069 2.93-1.86 1.86-2.931 4.44-2.931 7.07s1.07 5.21 2.931 7.069c1.859 1.86 4.439 2.931 7.069 2.931s5.21-1.07 7.07-2.931c1.86-1.859 2.93-4.439 2.93-7.069s-1.069-5.21-2.93-7.07-4.44-2.93-7.07-2.93z"/><path d="M511.999 108.537c0-5.523-4.478-10-10-10H486.6a108.039 108.039 0 00-8.385-20.255l10.886-10.887c3.905-3.905 3.905-10.237 0-14.142L458.747 22.9c-3.906-3.905-10.236-3.905-14.143 0l-10.886 10.886a108.11 108.11 0 00-20.255-8.386V10c0-5.522-4.478-10-10-10h-42.927c-5.522 0-10 4.477-10 10v15.437a108.072 108.072 0 00-20.212 8.391l-10.929-10.929c-3.906-3.905-10.236-3.905-14.143 0l-30.354 30.354c-2.38 2.381-3.301 5.662-2.78 8.746H40.033C17.959 62 0 79.959 0 102.034v275.933C0 400.041 17.959 418 40.033 418h158.895v34h-23.964c-19.87 0-36.036 16.166-36.036 36.036V502c0 5.522 4.478 10 10 10h184c5.522 0 10-4.478 10-10v-13.964c0-19.87-16.165-36.036-36.035-36.036h-23.965v-34h158.804c22.075 0 40.034-17.959 40.034-40.033V214.081l7.335-7.335a10.001 10.001 0 000-14.142l-10.929-10.928a108.104 108.104 0 008.392-20.212h15.437a10.001 10.001 0 0010-10l-.002-42.927zM322.928 488.036V492h-164v-3.964c0-8.843 7.193-16.036 16.036-16.036h131.929c8.841 0 16.035 7.193 16.035 16.036zm-60-36.036h-44v-34h44v34zm198.838-74.033c0 11.046-8.987 20.033-20.034 20.033H40.033C28.987 398 20 389.013 20 377.967v-22.85h371.771c5.522 0 10-4.478 10-10s-4.478-10-10-10H20V307h76.333c5.522 0 10-4.478 10-10s-4.478-10-10-10H20V102.034C20 90.987 28.987 82 40.033 82h243.976a108.13 108.13 0 00-6.485 16.537h-15.523a10.001 10.001 0 00-10.001 10l.001 42.926c0 5.523 4.478 10 10 10h15.56c2.1 6.979 4.892 13.71 8.349 20.131l-11.01 11.011c-3.905 3.905-3.905 10.237 0 14.142l30.354 30.353c3.906 3.905 10.236 3.905 14.143 0l11.01-11.01a108.072 108.072 0 0020.131 8.349L350.537 250c0 5.522 4.478 10 10 10l42.927-.001c5.522 0 10-4.477 10-10v-15.524a108.072 108.072 0 0020.174-8.342l10.967 10.967a10.003 10.003 0 0014.142 0l3.019-3.019v143.886zM492 141.463h-13.157a10.002 10.002 0 00-9.764 7.838 88.354 88.354 0 01-11.864 28.578 10.007 10.007 0 001.348 12.472l9.325 9.325-16.212 16.211-9.353-9.353a10.007 10.007 0 00-12.448-1.364 88.35 88.35 0 01-28.561 11.809 10 10 0 00-7.851 9.766V240h-22.927v-13.281a10 10 0 00-7.838-9.764 88.37 88.37 0 01-28.52-11.828 9.996 9.996 0 00-5.38-1.571 10.01 10.01 0 00-7.074 2.93l-9.4 9.401-16.211-16.212 9.4-9.4a10.007 10.007 0 001.349-12.471 88.345 88.345 0 01-11.817-28.503 10 10 0 00-9.764-7.838H272l.001-22.926h13.253c4.694 0 8.757-3.266 9.767-7.851a88.337 88.337 0 0111.794-28.538 10.007 10.007 0 00-1.349-12.47l-9.354-9.354 16.212-16.211 9.324 9.324c3.429 3.428 8.729 3.845 12.613 1.258a88.312 88.312 0 0128.437-11.773 10.001 10.001 0 007.838-9.763L370.537 20h22.927v13.13a10 10 0 007.851 9.766 88.356 88.356 0 0128.629 11.852 10.008 10.008 0 0012.456-1.359l9.276-9.277 16.211 16.212-9.276 9.276a10.006 10.006 0 00-1.347 12.473 88.305 88.305 0 0111.839 28.611 10 10 0 009.767 7.851h13.131v22.928z"/><path d="M382 68c-34.187 0-62 27.813-62 62s27.813 62 62 62 62-27.813 62-62-27.813-62-62-62zm0 104c-23.159 0-42-18.841-42-42s18.841-42 42-42 42 18.841 42 42-18.841 42-42 42zm-218.33 15.22c-2.641 0-5.21 1.07-7.07 2.93a10.039 10.039 0 00-2.93 7.08c0 2.63 1.06 5.21 2.93 7.07 1.86 1.86 4.43 2.92 7.07 2.92 2.63 0 5.21-1.06 7.07-2.92a10.08 10.08 0 002.93-7.07c0-2.64-1.07-5.22-2.93-7.08a10.076 10.076 0 00-7.07-2.93z"/><path d="M241.719 179.822a9.997 9.997 0 00-.999-7.588l-16.885-29.244c-2.761-4.782-8.877-6.422-13.66-3.66l-9.618 5.553a63.245 63.245 0 00-10.006-5.786V128c0-5.523-4.478-10-10-10h-33.769c-5.522 0-10 4.477-10 10v11.097a63.323 63.323 0 00-10.006 5.786l-9.618-5.553a9.997 9.997 0 00-13.66 3.66l-16.884 29.244c-2.762 4.783-1.123 10.898 3.66 13.66l9.622 5.556a64.686 64.686 0 000 11.548l-9.622 5.556c-4.783 2.761-6.422 8.877-3.66 13.66l16.884 29.244a9.997 9.997 0 0013.66 3.66l9.618-5.553a63.245 63.245 0 0010.006 5.786v11.097c0 5.522 4.478 10 10 10h33.769c5.522 0 10-4.478 10-10v-11.097a63.323 63.323 0 0010.006-5.786l9.618 5.553c4.784 2.761 10.898 1.123 13.66-3.66l16.885-29.244a9.997 9.997 0 00-3.66-13.66L227.437 203a64.348 64.348 0 000-11.549l9.623-5.556a10.009 10.009 0 004.659-6.073zm-34.946 8.391a44.455 44.455 0 010 18.024 10 10 0 004.791 10.693l6.835 3.946-6.885 11.924-6.846-3.952a10 10 0 00-11.666 1.207 43.706 43.706 0 01-15.575 9.006 10 10 0 00-6.877 9.5v7.89h-13.769v-7.89a10 10 0 00-6.877-9.5 43.712 43.712 0 01-15.575-9.006 9.998 9.998 0 00-11.666-1.207l-6.846 3.952-6.884-11.924 6.834-3.946a10 10 0 004.791-10.693 44.482 44.482 0 010-18.024 10 10 0 00-4.791-10.693l-6.834-3.946 6.884-11.923 6.846 3.952a9.998 9.998 0 0011.666-1.207 43.706 43.706 0 0115.575-9.006 10 10 0 006.877-9.5V138h13.769v7.89a10 10 0 006.877 9.5 43.712 43.712 0 0115.575 9.006 10.002 10.002 0 0011.666 1.207l6.846-3.953 6.885 11.924-6.835 3.946a10.002 10.002 0 00-4.791 10.693z"/></symbol><symbol viewBox="0 -25 424 424" id="code" xmlns="http://www.w3.org/2000/svg"><path d="M167.29 272.133a6.972 6.972 0 01-4.532-1.672l-45.297-38.57a7 7 0 010-10.66l45.297-38.57a7 7 0 019.867.788c2.504 2.946 2.152 7.363-.793 9.867l-39.035 33.243 39.035 33.242a7 7 0 01-4.543 12.332zm89.42 0a6.972 6.972 0 01-5.331-2.465 7 7 0 01.789-9.867l39.035-33.242-39.035-33.243a7 7 0 019.074-10.656l45.297 38.57a7 7 0 010 10.66l-45.297 38.57a6.972 6.972 0 01-4.531 1.673zm-60.745 28.93a7.002 7.002 0 01-6.86-8.445l28.23-134.036a7 7 0 0113.7 2.887l-28.23 134.035a7.001 7.001 0 01-6.84 5.559zm0 0"/><path d="M377 374.086H47c-25.914 0-47-21.082-47-47V47C0 21.086 21.086 0 47 0h330c25.914 0 47 21.086 47 47v280.086c0 25.918-21.086 47-47 47zM47 14c-18.195 0-33 14.805-33 33v280.086c0 18.195 14.805 33 33 33h330c18.195 0 33-14.805 33-33V47c0-18.195-14.805-33-33-33zm0 0"/><path d="M417 112.09H7a7.001 7.001 0 010-14h410a7.001 7.001 0 010 14zM119.602 78.594c-12.211 0-22.153-9.942-22.153-22.153 0-12.214 9.942-22.152 22.153-22.152 12.214 0 22.152 9.938 22.152 22.152 0 12.211-9.938 22.153-22.152 22.153zm0-30.305c-4.493 0-8.153 3.656-8.153 8.152s3.66 8.153 8.153 8.153c4.496 0 8.152-3.656 8.152-8.153s-3.656-8.152-8.152-8.152zM51.54 78.379c-12.216 0-22.153-9.938-22.153-22.152 0-12.215 9.937-22.153 22.152-22.153 12.215 0 22.152 9.938 22.152 22.153 0 12.214-9.937 22.152-22.152 22.152zm0-30.305c-4.493 0-8.153 3.66-8.153 8.153 0 4.496 3.66 8.152 8.152 8.152 4.496 0 8.152-3.656 8.152-8.152 0-4.493-3.656-8.153-8.152-8.153zm136.124 30.731c-12.21 0-22.148-9.938-22.148-22.153 0-12.21 9.937-22.148 22.148-22.148 12.215 0 22.152 9.937 22.152 22.148 0 12.215-9.937 22.153-22.152 22.153zm0-30.305c-4.492 0-8.148 3.656-8.148 8.152s3.656 8.153 8.148 8.153c4.496 0 8.152-3.657 8.152-8.153s-3.656-8.152-8.152-8.152zm0 0"/></symbol><symbol viewBox="0 0 480 480" id="copyright" xmlns="http://www.w3.org/2000/svg"><path d="M473.629 183.584l-45.248-45.256a8 8 0 00-11.314-.006l-.006.006-29.032 29.032V88c0-.176-.088-.328-.104-.504a7.557 7.557 0 00-.408-2.056c-.088-.256-.152-.504-.264-.752a7.87 7.87 0 00-1.6-2.344l-80-80a7.777 7.777 0 00-2.4-1.6c-.232-.104-.456-.168-.688-.248a7.716 7.716 0 00-2.168-.432c-.08.016-.216-.064-.368-.064h-256a8 8 0 00-8 8v400h-24a8 8 0 00-8 8v32c0 17.673 14.327 32 32 32h320c17.673 0 32-14.327 32-32V280.496l85.6-85.6a8 8 0 000-11.312zM281.285 319.36l-11.312-11.312 96.16-96.168 11.32 11.32-96.168 96.16zm7.816 30.44l-40.424 13.48 13.48-40.432 26.944 26.952zm18.928-322.488L360.717 80h-52.688V27.312zM36.029 464c-8.837 0-16-7.163-16-16v-24h304v24a31.76 31.76 0 004.296 16H36.029zm336-16c0 8.837-7.163 16-16 16s-16-7.163-16-16v-32a8 8 0 00-8-8h-280V16h240v72a8 8 0 008 8h72v87.36l-.232.24-118.792 118.8c-.064.056-.072.144-.128.2a7.995 7.995 0 00-1.808 2.92l-22.632 67.888a8 8 0 007.592 10.52 7.68 7.68 0 002.528-.416l67.872-22.624a7.821 7.821 0 002.912-1.8c.064-.056.152-.072.208-.128l62.48-62.464V448zm-68.12-106.008l-11.312-11.312 96.168-96.176 11.32 11.32-96.176 96.168zm107.48-107.488l-33.936-33.936 5.656-5.656 5.656-5.664 33.936 33.952-11.312 11.304zm22.632-22.616l-33.944-33.952 22.624-22.624 33.944 33.944-22.624 22.632z"/><path d="M236.029 112V64h-16v48h-16V48h-16v64h-16V40h-16v72h-16V64h-16v48h-16V80h-16v32h-16v16h176v-16zm-160 40h16v16h-16zm32 0h240v16h-240zm-32 32h256v16h-256zm0 32h224v16h-224zm0 32h192v16h-192zm16 120v-80h-16v88a8 8 0 008 8h128v-16h-120z"/><path d="M190.373 306.344l-26.344 26.344-18.344-18.344a8 8 0 00-11.312 0l-32 32 11.312 11.312 26.344-26.344 18.344 18.344a8 8 0 0011.312 0l32-32-11.312-11.312z"/></symbol><symbol viewBox="0 0 512 512" id="design" xmlns="http://www.w3.org/2000/svg"><path d="M316 346c-5.52 0-10 4.48-10 10s4.48 10 10 10 10-4.48 10-10-4.48-10-10-10zm0 0"/><path d="M462 0H50C22.43 0 0 22.43 0 50v306c0 27.57 22.43 50 50 50h156v46h-10c-13.352 0-25.902 5.203-35.352 14.648-9.445 9.45-14.648 22-14.648 35.352 0 5.523 4.477 10 10 10h200c5.523 0 10-4.477 10-10 0-27.57-22.43-50-50-50h-10v-46h156c27.57 0 50-22.43 50-50V50c0-27.57-22.43-50-50-50zM50 20h412c16.543 0 30 13.457 30 30v256h-46V76c0-5.523-4.477-10-10-10h-80c-5.523 0-10 4.477-10 10v230h-50.055a918.982 918.982 0 00-.804-30.43c-1.75-40.726-5.739-68.007-7.813-80.007 20.633-15.192 26.266-43.348 13.652-65.223l-34.66-60.031c-1.789-3.094-5.09-5-8.66-5a9.997 9.997 0 00-8.66 5l-34.676 60.035c-11.89 20.625-7.676 47.34 11.004 63.105-2.164 11.965-6.531 40.223-8.43 82.102a891.6 891.6 0 00-.843 30.449H166V156a9.947 9.947 0 00-.988-4.316c-.028-.051-.043-.106-.067-.157l-40-80a10.003 10.003 0 00-17.89 0l-40 80c-.024.051-.04.106-.063.157A9.94 9.94 0 0066 156v150H20V50c0-16.543 13.457-30 30-30zm316 286V86h60v20h-10c-5.523 0-10 4.477-10 10s4.477 10 10 10h10v30h-10c-5.523 0-10 4.477-10 10s4.477 10 10 10h10v30h-10c-5.523 0-10 4.477-10 10s4.477 10 10 10h10v40h-10c-5.523 0-10 4.477-10 10s4.477 10 10 10h10v20zM257.66 205.309c3.633 0 7.25-.418 10.79-1.2 1.855 11.895 4.581 32.942 6.195 61.891h-37.223c1.691-28.93 4.547-50.305 6.52-62.602a50.061 50.061 0 0013.718 1.91zm0-20c-22.855 0-37.594-24.875-26.012-44.97l26.012-45.03 25.996 45.027c11.54 20.012-2.996 44.973-25.996 44.973zM236.504 286h39.02c.21 6.57.355 13.254.425 20h-39.894c.074-6.703.226-13.387.449-20zM126 306V166h20v140zm-40 0V166h20v140zm6.18-160L116 98.36 139.82 146zm252.105 346H167.703c1.469-4.168 3.867-7.988 7.086-11.21 5.672-5.67 13.203-8.79 21.211-8.79h120c13.04 0 24.16 8.36 28.285 20zM286 452h-60v-46h60zm176-66H50c-16.543 0-30-13.457-30-30v-30h472v30c0 16.543-13.457 30-30 30zm0 0"/><path d="M276 346h-60c-5.523 0-10 4.477-10 10s4.477 10 10 10h60c5.523 0 10-4.477 10-10s-4.477-10-10-10zm0 0"/></symbol><symbol viewBox="0 0 512 512" id="fb" xmlns="http://www.w3.org/2000/svg"><path d="M256.002 16.75c-131.772 0-238.605 99.167-238.605 221.515 0 69.709 34.688 131.886 88.908 172.497v84.487l81.244-44.712c21.684 6.007 44.648 9.27 68.453 9.27 131.77 0 238.602-99.168 238.602-221.513 0-122.376-106.833-221.544-238.602-221.544zm0 0"/><path d="M279.711 315.062l-60.756-64.988-118.552 64.988 130.394-138.823 62.244 64.988 117.094-64.988-130.424 138.823zm0 0"/></symbol><symbol viewBox="0 0 512 512" id="landing-page" xmlns="http://www.w3.org/2000/svg"><path d="M488 384h-8V168a40.047 40.047 0 00-40-40v-24a40.047 40.047 0 00-40-40H112a40.047 40.047 0 00-40 40v24a40.047 40.047 0 00-40 40v216h-8a8 8 0 00-8 8v24a32.032 32.032 0 0032 32h416a32.032 32.032 0 0032-32v-24a8 8 0 00-8-8zM48 168a24.027 24.027 0 0124-24v224h16V104a24.027 24.027 0 0124-24h288a24.027 24.027 0 0124 24v264h16V144a24.027 24.027 0 0124 24v216H323.312a35.079 35.079 0 00-24.968 10.344A19.191 19.191 0 01284.688 400h-57.376a19.191 19.191 0 01-13.656-5.656A35.079 35.079 0 00188.688 384H48zm432 248a16.021 16.021 0 01-16 16H48a16.021 16.021 0 01-16-16v-16h156.688a19.191 19.191 0 0113.656 5.656A35.073 35.073 0 00227.281 416h57.438a35.073 35.073 0 0024.937-10.341A19.191 19.191 0 01323.312 400H480z"/><path d="M111.992 96h16v16h-16zm32 0h16v16h-16zm32 0h16v16h-16zM112 144h288v-16H112zm0 200h288v16H112zm29.82-73.336l199.086 56.274a27.943 27.943 0 007.633 1.07 27.47 27.47 0 0016.617-5.617 27.247 27.247 0 00-8.015-47.68l-55.782-18.4-54.468-92.374A8.008 8.008 0 00240 160h-24a8 8 0 00-7.656 10.32L228.258 236l-46.11-11.406-6.578-19.188a7.985 7.985 0 00-5.039-4.992l-24-8A7.992 7.992 0 00136 200v62.969a7.99 7.99 0 005.82 7.695zM152 211.1l9.719 3.234 6.711 19.57a8 8 0 005.648 5.172l64 15.828a8 8 0 009.578-10.086L226.789 176h8.641l53.679 91.031a7.976 7.976 0 004.383 3.531l58.633 19.338A11.352 11.352 0 01360 300.648a11.2 11.2 0 01-4.5 8.985 11.646 11.646 0 01-10.234 1.914L152 256.914zM112 160h32v16h-32z"/><path d="M160 160h32v16h-32zm112 0h32v16h-32zm48 0h32v16h-32zm48 0h32v16h-32z"/></symbol><symbol viewBox="0 0 9 16" id="next" xmlns="http://www.w3.org/2000/svg"><path d="M1 1l7 7-7 7"/></symbol><symbol viewBox="0 0 9 16" id="prev" xmlns="http://www.w3.org/2000/svg"><path d="M8 15L1 8l7-7"/></symbol><symbol viewBox="0 0 484.564 484.564" id="shop" xmlns="http://www.w3.org/2000/svg"><path d="M206.164 233.847h29c4.2 0 7.7-3.4 7.7-7.7v-.8c0-4.2-3.4-7.7-7.7-7.7h-33.7c-4.5 0-8.5 3-9.7 7.3l-7.6 26.7c-3.5-2.2-7.6-3.4-11.9-3.4h-149.3c-6.9 0-13.5 3-17.9 8.3-4.5 5.6-6.1 12.8-4.4 19.7l20.3 81.7c2.5 10.1 11.5 17.1 21.9 17.1h121.7c5.2 0 9.4 4.3 9.2 9.5-.2 5-4.4 8.8-9.4 8.8h-102.1c-14.5 0-26.5 11.6-26.5 26.1 0 15 12.8 27.1 28 26 12.4-.9 22.6-10.6 24-23 .5-4.1 0-8-1.3-11.6h30.5c-.9 2.7-1.5 5.6-1.5 8.6 0 15 12.7 27.1 27.9 26 12.8-.9 23.1-11.1 24.2-23.9.3-3.8-.2-7.4-1.4-10.8 13.9-.9 24.9-12.5 24.9-26.6 0-12.5-8.6-23-20.2-25.9l20.4-72.3 14.9-52.1zm-144.3 194.4c-4.7 0-8.6-3.9-8.6-8.6s3.9-8.6 8.6-8.6 8.6 3.9 8.6 8.6-3.9 8.6-8.6 8.6zm79.8 0c-4.7 0-8.6-3.9-8.6-8.6s3.9-8.6 8.6-8.6c4.7 0 8.6 3.9 8.6 8.6s-3.9 8.6-8.6 8.6zm-124.1-156.1c-.5-2.1.4-3.6.9-4.3.6-.7 1.8-1.9 4-1.9h14.4l4.3 20.3h-20.1l-3.5-14.1zm7.9 31.5h19.4l4 18.8h-18.8l-4.6-18.8zm17.3 54c-2.3 0-4.4-1.6-4.9-3.8l-3.5-13.9h18.1l3.7 17.8h-13.4v-.1zm45.2 0h-13.8l-3.7-17.8h17.5v17.8zm0-35.2h-21.3l-4-18.8h25.2v18.8h.1zm0-36.3h-28.9l-4.3-20.3h33.2v20.3zm29.8 71.5h-12.3v-17.8h16.2l-3.9 17.8zm7.8-35.2h-20.1v-18.8h24.2l-4.1 18.8zm-20.1-36.3v-20.3h32.5l-4.4 20.3h-28.1zm48.6 67.8c-.6 2.2-2.6 3.7-4.9 3.7h-13.5l3.9-17.8h18.4l-3.9 14.1zm8.9-31.5h-19.5l4.1-18.8h20.7l-5.3 18.8zm14.1-50.1l-3.9 13.8h-21.8l4.4-20.3h16.4c2.2 0 3.5 1.3 4 2 .7.8 1.5 2.4.9 4.5z"/><path d="M482.364 303.747l-19.3-23.8c-3.1-3.8-4.8-8.5-4.8-13.4v-190c0-20.7-16.8-37.5-37.5-37.5h-301.8c-20.7 0-37.5 16.8-37.5 37.5v146.2h37.4v-146.3h302v192.5h-196.6l-4.8 17.2-17 60.2h256.6c14.1 0 25.5-11.4 25.5-25.5v-10.9c0-2.2-.8-4.4-2.2-6.2zm-171.9 5.5c0 7.1-5.8 12.9-12.9 12.9h-55.5c-7.1 0-12.9-5.8-12.9-12.9v-2.8h81.4v2.8h-.1z"/></symbol><symbol viewBox="0 0 512 512" id="skype" xmlns="http://www.w3.org/2000/svg"><path d="M29.2 250.2c.5-5.5 1.5-16.1 2.3-26.7.2-2.5-.1-5.3-1.2-7.5-40.1-80 2.5-175.4 89-198.3 34.2-9.1 67.3-5 99.1 10.8 2.5 1.2 5.7 1.9 8.4 1.6 64-7.1 121.8 8.3 172 48.9 46.8 37.9 74.2 87.2 82.4 147.1 2.7 19.8 2.5 39.5.1 59.3-.4 3 .3 6.7 1.8 9.3 48.3 84.7-2.9 192-99.2 207.1-33.8 5.3-65.6-1.2-95-18.9-2.2-1.3-5.3-2.1-7.8-1.9-96.7 9.3-184.7-39-228.4-125.4-15-29.7-23-64.1-23.5-105.4zm19.4 5.2c.7 50.2 18.1 98.3 52.2 136.2 48.8 54.2 110.1 76.8 182.6 68.7 4.5-.5 8.2.2 12.1 2.8 31.2 20.6 65 25.9 100.7 15.4 75.5-22.3 108.7-110.1 67.3-177.3-2.2-3.5-4.2-6.8-3.4-11.5 4.8-26.9 3.9-53.7-2.1-80.4C434.7 106.6 336.5 35.1 227 50.4c-5.8.8-10.5 0-15.6-2.7-53.4-29.1-120-14-154.5 36.1-27.9 40.6-29.2 83.4-6.7 127 1.6 3.2 2.5 6.1 2 9.8-1.5 11.6-2.5 23.2-3.6 34.8z"/><path d="M253.5 383.1c-20.5-.2-40.5-2.7-59.5-11-11.6-5.1-22-11.9-30.6-21.2-7.9-8.5-12.7-18.3-12.7-30.1-.1-18.8 18.7-30.1 35.1-20.8 3.9 2.2 7.3 5.8 10.5 9.1 3.4 3.5 6.4 7.2 9.3 11.1 13.6 18 32.6 22.4 53.7 21.2 10-.5 19.3-3.3 27.5-9.4 9.4-7.1 14.2-16.3 12.1-28.2-2-11.3-10.2-16.9-20.3-19.7-19.6-5.4-39.3-10.2-59-15.1-15.4-3.9-30.5-8.2-43.6-17.8-15.7-11.4-24-27-25-46.2-1.8-35.4 13.7-60.3 47.4-72.7 40.7-15 80.8-12.7 118.9 9.2 7.1 4.1 13.6 9.7 19.2 15.7 4 4.3 6.8 10.4 8.4 16.1 3.3 11.6-.1 20.3-8.8 25.8-9.8 6.2-22.2 6-30.8-1.3-5.7-4.8-10.7-10.5-15.9-15.9-5.8-6-12.8-10.1-20.8-12.3-13.8-3.8-27.6-4.4-41.4-.5-8.5 2.4-15.4 7.1-19.4 15.3-5.3 10.7-3.2 21 7.1 26.9 7.9 4.6 16.8 8.1 25.7 10.4 18.6 4.9 37.7 8.4 56.3 13.3 8.9 2.4 17.8 5.8 25.9 10.3 26.9 14.9 36 40 32.8 68.5-3.7 32.5-24.9 55.3-59.5 63.9-13.8 3.4-28.2 4.5-42.3 6.6-.2-.3-.2-.8-.3-1.2z"/></symbol><symbol viewBox="0 0 512 512" id="telegram" xmlns="http://www.w3.org/2000/svg"><path d="M470.435 45.423L16.827 221.249c-18.254 8.188-24.428 24.585-4.412 33.484l116.37 37.173 281.368-174.79c15.363-10.973 31.091-8.047 17.557 4.024L186.053 341.075l-7.591 93.076c7.031 14.371 19.905 14.438 28.117 7.295l66.858-63.589 114.505 86.187c26.595 15.826 41.066 5.613 46.788-23.394l75.105-357.47c7.798-35.705-5.5-51.437-39.4-37.757z"/></symbol><symbol viewBox="0 0 192 210.043" id="viber" xmlns="http://www.w3.org/2000/svg"><path d="M116.004 0H75.996C34.092 0 0 34.086 0 75.98v36.04c0 31.199 19.172 59.238 48 70.66v23.363a3.998 3.998 0 004 4 4 4 0 002.686-1.035L77.879 188h38.125C157.908 188 192 153.914 192 112.02V75.98C192 34.086 157.908 0 116.004 0zM184 112.02c0 37.484-30.502 67.98-67.996 67.98H76.336c-.992 0-1.95.367-2.686 1.035L56 197.024v-17.118a3.994 3.994 0 00-2.668-3.77C26.219 166.552 8 140.787 8 112.02V75.98C8 38.496 38.502 8 75.996 8h40.008C153.498 8 184 38.496 184 75.98v36.04z"/><path d="M148.863 121.973l-24.586-15.969a11.987 11.987 0 00-9.021-1.692 11.902 11.902 0 00-7.58 5.212l-1.156 1.777c-10.641-3.516-22.374-8.008-29.397-28.34l2.908-2.527h.002c4.99-4.34 5.516-11.934 1.174-16.934L61.975 41.375a4.005 4.005 0 00-5.645-.395L44.256 51.476c-10.594 9.208-5.643 22.829-4.016 27.305.072.2.16.391.264.578.42.754 10.45 18.649 26.642 35.145 16.26 16.562 45.618 31.86 46.518 32.304a19.89 19.89 0 0010.856 3.22c6.55 0 12.976-3.212 16.806-9.102l8.713-13.418a4.003 4.003 0 00-1.176-5.535zm-14.246 14.593c-3.605 5.551-11.05 7.13-16.933 3.336-.293-.152-29.456-15.34-44.828-31-14.368-14.636-23.907-30.894-25.21-33.164-3.17-8.882-2.609-14.344 1.856-18.222l9.058-7.872L75.168 68.75c1.474 1.695 1.305 4.176-.385 5.644l-4.908 4.266a3.997 3.997 0 00-1.2 4.196c8.37 27.19 24.641 32.53 36.522 36.433l1.73.57a3.978 3.978 0 004.62-1.613l2.838-4.367a3.957 3.957 0 012.52-1.735 3.978 3.978 0 013.013.57l21.232 13.79-6.533 10.062zm-29.488-71.578a3.99 3.99 0 00-4.943 2.754 4.002 4.002 0 002.752 4.942c5.96 1.695 10.706 6.453 12.388 12.418a4.002 4.002 0 004.936 2.765 4.002 4.002 0 002.763-4.937c-2.427-8.618-9.287-15.492-17.896-17.942z"/><path d="M135.57 88.875a4.002 4.002 0 003.852-5.086c-4.719-16.73-18.037-30.078-34.756-34.836-2.125-.613-4.338.633-4.941 2.754a4.001 4.001 0 002.753 4.941c14.067 4 25.274 15.235 29.245 29.313a4.002 4.002 0 003.847 2.914z"/><path d="M102.943 30.328A3.99 3.99 0 0098 33.082a4.002 4.002 0 002.752 4.942c23.838 6.78 42.824 25.812 49.55 49.664a4.001 4.001 0 004.936 2.765 4.004 4.004 0 002.764-4.937c-7.475-26.504-28.572-47.649-55.059-55.188z"/></symbol><symbol viewBox="0 0 90 90" id="whatsapp" xmlns="http://www.w3.org/2000/svg"><path d="M90 43.841c0 24.213-19.779 43.841-44.182 43.841a44.256 44.256 0 01-21.357-5.455L0 90l7.975-23.522a43.38 43.38 0 01-6.34-22.637C1.635 19.628 21.416 0 45.818 0 70.223 0 90 19.628 90 43.841zM45.818 6.982c-20.484 0-37.146 16.535-37.146 36.859 0 8.065 2.629 15.534 7.076 21.61L11.107 79.14l14.275-4.537A37.122 37.122 0 0045.819 80.7c20.481 0 37.146-16.533 37.146-36.857S66.301 6.982 45.818 6.982zm22.311 46.956c-.273-.447-.994-.717-2.076-1.254-1.084-.537-6.41-3.138-7.4-3.495-.993-.358-1.717-.538-2.438.537-.721 1.076-2.797 3.495-3.43 4.212-.632.719-1.263.809-2.347.271-1.082-.537-4.571-1.673-8.708-5.333-3.219-2.848-5.393-6.364-6.025-7.441-.631-1.075-.066-1.656.475-2.191.488-.482 1.084-1.255 1.625-1.882.543-.628.723-1.075 1.082-1.793.363-.717.182-1.344-.09-1.883-.27-.537-2.438-5.825-3.34-7.977-.902-2.15-1.803-1.792-2.436-1.792-.631 0-1.354-.09-2.076-.09s-1.896.269-2.889 1.344c-.992 1.076-3.789 3.676-3.789 8.963 0 5.288 3.879 10.397 4.422 11.113.541.716 7.49 11.92 18.5 16.223C58.2 65.771 58.2 64.336 60.186 64.156c1.984-.179 6.406-2.599 7.312-5.107.9-2.512.9-4.663.631-5.111z"/></symbol></svg>