<?xml version="1.0" encoding="utf-8"?><svg xmlns="http://www.w3.org/2000/svg" xmlns:xlink="http://www.w3.org/1999/xlink"><symbol viewBox="0 0 512 512" id="fb" xmlns="http://www.w3.org/2000/svg"><path d="M256.002 16.75c-131.772 0-238.605 99.167-238.605 221.515 0 69.709 34.688 131.886 88.908 172.497v84.487l81.244-44.712c21.684 6.007 44.648 9.27 68.453 9.27 131.77 0 238.602-99.168 238.602-221.513 0-122.376-106.833-221.544-238.602-221.544zm0 0"/><path d="M279.711 315.062l-60.756-64.988-118.552 64.988 130.394-138.823 62.244 64.988 117.094-64.988-130.424 138.823zm0 0"/></symbol><symbol viewBox="0 0 512 512" id="skype" xmlns="http://www.w3.org/2000/svg"><path d="M29.2 250.2c.5-5.5 1.5-16.1 2.3-26.7.2-2.5-.1-5.3-1.2-7.5-40.1-80 2.5-175.4 89-198.3 34.2-9.1 67.3-5 99.1 10.8 2.5 1.2 5.7 1.9 8.4 1.6 64-7.1 121.8 8.3 172 48.9 46.8 37.9 74.2 87.2 82.4 147.1 2.7 19.8 2.5 39.5.1 59.3-.4 3 .3 6.7 1.8 9.3 48.3 84.7-2.9 192-99.2 207.1-33.8 5.3-65.6-1.2-95-18.9-2.2-1.3-5.3-2.1-7.8-1.9-96.7 9.3-184.7-39-228.4-125.4-15-29.7-23-64.1-23.5-105.4zm19.4 5.2c.7 50.2 18.1 98.3 52.2 136.2 48.8 54.2 110.1 76.8 182.6 68.7 4.5-.5 8.2.2 12.1 2.8 31.2 20.6 65 25.9 100.7 15.4 75.5-22.3 108.7-110.1 67.3-177.3-2.2-3.5-4.2-6.8-3.4-11.5 4.8-26.9 3.9-53.7-2.1-80.4C434.7 106.6 336.5 35.1 227 50.4c-5.8.8-10.5 0-15.6-2.7-53.4-29.1-120-14-154.5 36.1-27.9 40.6-29.2 83.4-6.7 127 1.6 3.2 2.5 6.1 2 9.8-1.5 11.6-2.5 23.2-3.6 34.8z"/><path d="M253.5 383.1c-20.5-.2-40.5-2.7-59.5-11-11.6-5.1-22-11.9-30.6-21.2-7.9-8.5-12.7-18.3-12.7-30.1-.1-18.8 18.7-30.1 35.1-20.8 3.9 2.2 7.3 5.8 10.5 9.1 3.4 3.5 6.4 7.2 9.3 11.1 13.6 18 32.6 22.4 53.7 21.2 10-.5 19.3-3.3 27.5-9.4 9.4-7.1 14.2-16.3 12.1-28.2-2-11.3-10.2-16.9-20.3-19.7-19.6-5.4-39.3-10.2-59-15.1-15.4-3.9-30.5-8.2-43.6-17.8-15.7-11.4-24-27-25-46.2-1.8-35.4 13.7-60.3 47.4-72.7 40.7-15 80.8-12.7 118.9 9.2 7.1 4.1 13.6 9.7 19.2 15.7 4 4.3 6.8 10.4 8.4 16.1 3.3 11.6-.1 20.3-8.8 25.8-9.8 6.2-22.2 6-30.8-1.3-5.7-4.8-10.7-10.5-15.9-15.9-5.8-6-12.8-10.1-20.8-12.3-13.8-3.8-27.6-4.4-41.4-.5-8.5 2.4-15.4 7.1-19.4 15.3-5.3 10.7-3.2 21 7.1 26.9 7.9 4.6 16.8 8.1 25.7 10.4 18.6 4.9 37.7 8.4 56.3 13.3 8.9 2.4 17.8 5.8 25.9 10.3 26.9 14.9 36 40 32.8 68.5-3.7 32.5-24.9 55.3-59.5 63.9-13.8 3.4-28.2 4.5-42.3 6.6-.2-.3-.2-.8-.3-1.2z"/></symbol><symbol viewBox="0 0 512 512" id="telegram" xmlns="http://www.w3.org/2000/svg"><path d="M470.435 45.423L16.827 221.249c-18.254 8.188-24.428 24.585-4.412 33.484l116.37 37.173 281.368-174.79c15.363-10.973 31.091-8.047 17.557 4.024L186.053 341.075l-7.591 93.076c7.031 14.371 19.905 14.438 28.117 7.295l66.858-63.589 114.505 86.187c26.595 15.826 41.066 5.613 46.788-23.394l75.105-357.47c7.798-35.705-5.5-51.437-39.4-37.757z"/></symbol><symbol viewBox="0 0 192 210.043" id="viber" xmlns="http://www.w3.org/2000/svg"><path d="M116.004 0H75.996C34.092 0 0 34.086 0 75.98v36.04c0 31.199 19.172 59.238 48 70.66v23.363a3.998 3.998 0 004 4 4 4 0 002.686-1.035L77.879 188h38.125C157.908 188 192 153.914 192 112.02V75.98C192 34.086 157.908 0 116.004 0zM184 112.02c0 37.484-30.502 67.98-67.996 67.98H76.336c-.992 0-1.95.367-2.686 1.035L56 197.024v-17.118a3.994 3.994 0 00-2.668-3.77C26.219 166.552 8 140.787 8 112.02V75.98C8 38.496 38.502 8 75.996 8h40.008C153.498 8 184 38.496 184 75.98v36.04z"/><path d="M148.863 121.973l-24.586-15.969a11.987 11.987 0 00-9.021-1.692 11.902 11.902 0 00-7.58 5.212l-1.156 1.777c-10.641-3.516-22.374-8.008-29.397-28.34l2.908-2.527h.002c4.99-4.34 5.516-11.934 1.174-16.934L61.975 41.375a4.005 4.005 0 00-5.645-.395L44.256 51.476c-10.594 9.208-5.643 22.829-4.016 27.305.072.2.16.391.264.578.42.754 10.45 18.649 26.642 35.145 16.26 16.562 45.618 31.86 46.518 32.304a19.89 19.89 0 0010.856 3.22c6.55 0 12.976-3.212 16.806-9.102l8.713-13.418a4.003 4.003 0 00-1.176-5.535zm-14.246 14.593c-3.605 5.551-11.05 7.13-16.933 3.336-.293-.152-29.456-15.34-44.828-31-14.368-14.636-23.907-30.894-25.21-33.164-3.17-8.882-2.609-14.344 1.856-18.222l9.058-7.872L75.168 68.75c1.474 1.695 1.305 4.176-.385 5.644l-4.908 4.266a3.997 3.997 0 00-1.2 4.196c8.37 27.19 24.641 32.53 36.522 36.433l1.73.57a3.978 3.978 0 004.62-1.613l2.838-4.367a3.957 3.957 0 012.52-1.735 3.978 3.978 0 013.013.57l21.232 13.79-6.533 10.062zm-29.488-71.578a3.99 3.99 0 00-4.943 2.754 4.002 4.002 0 002.752 4.942c5.96 1.695 10.706 6.453 12.388 12.418a4.002 4.002 0 004.936 2.765 4.002 4.002 0 002.763-4.937c-2.427-8.618-9.287-15.492-17.896-17.942z"/><path d="M135.57 88.875a4.002 4.002 0 003.852-5.086c-4.719-16.73-18.037-30.078-34.756-34.836-2.125-.613-4.338.633-4.941 2.754a4.001 4.001 0 002.753 4.941c14.067 4 25.274 15.235 29.245 29.313a4.002 4.002 0 003.847 2.914z"/><path d="M102.943 30.328A3.99 3.99 0 0098 33.082a4.002 4.002 0 002.752 4.942c23.838 6.78 42.824 25.812 49.55 49.664a4.001 4.001 0 004.936 2.765 4.004 4.004 0 002.764-4.937c-7.475-26.504-28.572-47.649-55.059-55.188z"/></symbol><symbol viewBox="0 0 90 90" id="whatsapp" xmlns="http://www.w3.org/2000/svg"><path d="M90 43.841c0 24.213-19.779 43.841-44.182 43.841a44.256 44.256 0 01-21.357-5.455L0 90l7.975-23.522a43.38 43.38 0 01-6.34-22.637C1.635 19.628 21.416 0 45.818 0 70.223 0 90 19.628 90 43.841zM45.818 6.982c-20.484 0-37.146 16.535-37.146 36.859 0 8.065 2.629 15.534 7.076 21.61L11.107 79.14l14.275-4.537A37.122 37.122 0 0045.819 80.7c20.481 0 37.146-16.533 37.146-36.857S66.301 6.982 45.818 6.982zm22.311 46.956c-.273-.447-.994-.717-2.076-1.254-1.084-.537-6.41-3.138-7.4-3.495-.993-.358-1.717-.538-2.438.537-.721 1.076-2.797 3.495-3.43 4.212-.632.719-1.263.809-2.347.271-1.082-.537-4.571-1.673-8.708-5.333-3.219-2.848-5.393-6.364-6.025-7.441-.631-1.075-.066-1.656.475-2.191.488-.482 1.084-1.255 1.625-1.882.543-.628.723-1.075 1.082-1.793.363-.717.182-1.344-.09-1.883-.27-.537-2.438-5.825-3.34-7.977-.902-2.15-1.803-1.792-2.436-1.792-.631 0-1.354-.09-2.076-.09s-1.896.269-2.889 1.344c-.992 1.076-3.789 3.676-3.789 8.963 0 5.288 3.879 10.397 4.422 11.113.541.716 7.49 11.92 18.5 16.223C58.2 65.771 58.2 64.336 60.186 64.156c1.984-.179 6.406-2.599 7.312-5.107.9-2.512.9-4.663.631-5.111z"/></symbol></svg>